<?xml version="1.0" standalone="no"?>
<!DOCTYPE svg PUBLIC "-//W3C//DTD SVG 20010904//EN"
 "http://www.w3.org/TR/2001/REC-SVG-20010904/DTD/svg10.dtd">
<svg version="1.0" xmlns="http://www.w3.org/2000/svg"
 width="160.000000pt" height="160.000000pt" viewBox="0 0 160.000000 160.000000"
 preserveAspectRatio="xMidYMid meet">

<g transform="translate(0.000000,160.000000) scale(0.100000,-0.100000)"
fill="#000000" stroke="none">
<path d="M0 1227 c0 -206 2 -376 5 -379 3 -3 29 0 57 7 63 14 75 41 22 51 -19
3 -34 12 -34 20 0 8 -9 14 -20 14 -26 0 -25 15 2 34 19 14 20 16 4 16 -15 0
-16 5 -11 33 21 99 97 228 193 329 121 127 245 199 398 231 66 15 55 15 -273
16 l-343 1 0 -373z"/>
<path d="M984 1583 c285 -60 538 -312 600 -596 13 -57 14 -35 15 276 l1 337
-342 -1 c-329 -1 -340 -1 -274 -16z"/>
<path d="M737 1524 c-93 -20 -161 -47 -236 -92 -186 -112 -318 -278 -352 -441
-6 -30 -9 -96 -7 -145 l4 -91 -73 38 -73 38 0 -50 0 -51 63 -31 c34 -17 64
-33 66 -35 2 -2 -3 -21 -13 -41 -9 -21 -19 -76 -24 -122 l-7 -85 -29 70 c-15
38 -34 96 -41 129 -12 54 -13 26 -14 -277 l-1 -338 800 0 800 0 -1 338 c-1
303 -2 331 -14 277 -17 -78 -63 -190 -102 -244 -1 -2 -8 1 -15 7 -14 11 -115
46 -165 57 -18 4 -33 12 -33 19 0 21 -35 46 -64 46 -14 0 -42 -6 -61 -14 -29
-13 -34 -12 -39 1 -11 29 -5 99 15 173 32 119 34 160 9 198 -11 19 -26 32 -32
30 -15 -5 -31 -48 -18 -48 16 0 12 -19 -10 -48 -11 -15 -22 -38 -25 -51 -10
-51 -53 -76 -140 -80 -39 -2 -57 3 -79 20 -24 19 -26 24 -13 36 8 8 33 16 56
16 22 1 41 5 41 9 0 4 -18 19 -39 34 -40 26 -47 61 -11 51 25 -6 50 11 50 33
0 11 3 19 8 18 4 -2 18 5 32 15 18 12 20 17 8 17 -9 0 -19 -6 -22 -12 -5 -10
-7 -10 -12 0 -9 20 -24 14 -24 -10 -1 -53 -20 -56 -74 -13 -19 15 -19 16 16
53 20 20 39 47 43 60 3 12 13 22 21 22 12 0 14 -9 9 -44 l-7 -43 66 1 c72 1
78 9 28 41 -17 11 -31 23 -32 26 0 7 65 -4 95 -17 11 -4 5 5 -14 22 -28 23
-44 29 -82 29 -44 0 -46 1 -33 20 8 11 14 26 14 35 0 20 76 61 98 53 28 -10
53 -36 68 -72 16 -39 18 -53 4 -31 -14 22 -12 -2 5 -50 19 -55 19 -70 -2 -70
-12 0 -6 -12 24 -42 48 -50 55 -76 54 -182 -1 -94 8 -97 14 -5 2 35 5 64 6 64
0 0 2 22 3 49 1 43 -2 54 -31 84 -18 19 -31 38 -28 41 4 3 10 0 14 -8 5 -7 11
-11 14 -9 3 1 19 -7 36 -20 28 -21 31 -28 31 -79 0 -49 2 -54 15 -43 11 9 15
27 14 56 -2 24 -4 42 -7 40 -7 -7 -70 69 -65 77 7 11 70 -50 88 -83 9 -18 10
-31 4 -43 -7 -11 -6 -17 1 -17 9 0 15 22 11 44 -1 4 7 34 18 66 51 147 53 293
4 382 -57 105 -183 200 -309 234 -82 22 -215 25 -297 8z m110 -40 c-3 -3 -12
-4 -19 -1 -8 3 -5 6 6 6 11 1 17 -2 13 -5z m-231 -41 c-2 -9 -9 -19 -17 -21
-11 -3 -11 -1 1 7 13 10 13 11 0 11 -13 0 -13 1 0 10 19 12 19 13 16 -7z m-45
-10 c-9 -4 -10 -7 -2 -12 7 -5 3 -12 -13 -19 -20 -9 -24 -8 -22 4 3 17 24 34
41 33 6 0 4 -3 -4 -6z m34 -33 c3 -5 1 -10 -4 -10 -6 0 -11 5 -11 10 0 6 2 10
4 10 3 0 8 -4 11 -10z m-255 -104 c0 -2 -8 -10 -17 -17 -16 -13 -17 -12 -4 4
13 16 21 21 21 13z m4 -34 c3 -5 -1 -9 -9 -9 -8 0 -12 4 -9 9 3 4 7 8 9 8 2 0
6 -4 9 -8z m-54 -26 c0 -2 -8 -10 -17 -17 -16 -13 -17 -12 -4 4 13 16 21 21
21 13z m955 -6 c3 -5 1 -10 -4 -10 -6 0 -11 5 -11 10 0 6 2 10 4 10 3 0 8 -4
11 -10z m-980 -66 c-41 -67 -55 -83 -30 -34 19 37 54 90 60 90 2 0 -12 -25
-30 -56z m401 31 c-3 -8 0 -15 6 -15 15 0 -12 -30 -37 -40 -15 -7 -16 -9 -4
-9 9 -1 29 9 45 21 26 20 27 20 12 2 -10 -11 -18 -26 -18 -32 0 -7 -6 -13 -12
-14 -7 0 -17 -2 -23 -2 -11 -1 -15 -9 -15 -28 0 -9 4 -8 10 2 6 9 10 10 10 3
0 -23 -19 -23 -34 -1 l-16 22 0 -24 c0 -20 -2 -22 -10 -10 -7 12 -10 8 -10
-14 0 -39 -10 -27 -16 18 -3 30 -2 34 13 29 13 -5 15 -2 11 14 -4 17 -1 20 16
16 20 -3 20 -3 -1 8 -13 7 -23 21 -23 32 0 19 1 19 18 4 25 -23 38 -21 59 8
21 28 28 32 19 10z m601 9 c-3 -3 -12 -4 -19 -1 -8 3 -5 6 6 6 11 1 17 -2 13
-5z m-1051 -83 c-22 -44 -42 -78 -44 -76 -7 6 73 155 83 155 1 0 -16 -36 -39
-79z m413 58 c-16 -10 -23 -4 -14 10 3 6 11 8 17 5 6 -4 5 -9 -3 -15z m-105
-76 c4 -5 5 4 1 20 -5 18 -3 27 5 27 8 0 11 -11 7 -32 -2 -18 0 -44 4 -56 14
-36 -11 -22 -33 18 -10 19 -18 27 -18 18 0 -9 11 -30 25 -46 26 -31 41 -87 25
-97 -16 -10 -60 26 -81 67 -13 26 -19 52 -16 75 7 50 17 53 17 5 0 -32 7 -49
31 -77 17 -19 36 -35 42 -35 6 0 1 7 -11 16 -33 22 -52 67 -51 116 1 36 2 39
9 18 7 -23 8 -22 16 15 l8 40 6 -42 c4 -24 10 -46 14 -50z m10 72 c-4 -8 -8
-15 -10 -15 -2 0 -4 7 -4 15 0 8 4 15 10 15 5 0 7 -7 4 -15z m204 -1 c18 -8
32 -17 32 -20 0 -5 -71 24 -79 31 -10 11 18 4 47 -11z m599 -44 c9 0 14 -3 10
-6 -11 -11 -47 7 -47 24 1 16 2 15 11 0 5 -10 17 -18 26 -18z m-939 -55 c-2
-30 -2 -53 0 -50 3 2 14 -15 26 -38 11 -23 40 -56 63 -73 35 -27 40 -34 28
-44 -11 -9 -21 -7 -44 9 -64 46 -97 122 -86 201 9 67 18 64 13 -5z m-146 13
c-8 -8 -9 -4 -5 13 4 13 8 18 11 10 2 -7 -1 -18 -6 -23z m120 -28 c-5 -72 35
-153 94 -189 24 -14 44 -31 44 -38 1 -46 -85 3 -125 71 -30 51 -42 137 -26
179 6 15 12 27 13 27 2 0 1 -23 0 -50z m975 34 c-3 -3 -12 -4 -19 -1 -8 3 -5
6 6 6 11 1 17 -2 13 -5z m-1019 -47 c8 3 12 -7 12 -31 0 -76 47 -154 123 -202
22 -15 37 -32 37 -44 0 -26 -8 -25 -62 9 -54 34 -86 77 -110 146 -11 30 -17
41 -18 27 0 -12 9 -41 20 -63 12 -22 18 -45 14 -51 -4 -6 -3 -8 3 -5 5 4 23
-7 39 -24 16 -17 48 -42 72 -56 26 -15 42 -32 42 -44 0 -16 -4 -17 -27 -8 -74
27 -136 89 -166 166 -22 55 -34 153 -19 153 6 0 12 -10 14 -22 3 -20 4 -20 10
-6 4 10 2 23 -5 30 -7 7 -13 24 -15 38 -2 24 -2 25 10 4 7 -12 19 -19 26 -17z
m168 -84 c24 -21 44 -43 44 -50 0 -19 -11 -16 -51 11 -40 28 -83 113 -72 142
5 14 10 8 21 -24 9 -28 29 -55 58 -79z m851 80 c-3 -10 -5 -4 -5 12 0 17 2 24
5 18 2 -7 2 -21 0 -30z m-1132 17 c-14 -23 -24 -190 -11 -190 4 0 6 -11 4 -25
-3 -13 0 -27 6 -30 8 -3 7 -7 -1 -11 -18 -8 -16 -25 2 -18 19 8 19 -3 0 -22
-12 -12 -15 -13 -17 -2 0 7 -3 27 -6 43 -15 91 0 265 23 265 4 0 3 -5 0 -10z
m65 0 c0 -5 -5 -10 -11 -10 -5 0 -7 5 -4 10 3 6 8 10 11 10 2 0 4 -4 4 -10z
m-49 -37 c-12 -20 -14 -14 -5 12 4 9 9 14 11 11 3 -2 0 -13 -6 -23z m1067 -38
c0 -14 -4 -10 -14 13 -8 18 -11 38 -7 45 8 13 21 -23 21 -58z m-1030 -9 c-1
-30 0 -52 5 -49 4 2 7 -4 7 -14 0 -31 47 -116 82 -150 18 -18 56 -45 83 -60
35 -20 50 -34 51 -50 0 -18 -3 -20 -22 -12 -98 37 -170 106 -203 194 -20 54
-26 195 -8 195 5 0 7 -24 5 -54z m-100 7 c-5 -20 -7 -50 -4 -66 4 -18 1 -36
-6 -45 -10 -13 -10 -14 0 -8 8 5 12 1 12 -13 0 -11 -5 -23 -10 -26 -6 -4 -7
-11 -4 -17 4 -7 2 -8 -4 -4 -23 14 -6 216 18 216 5 0 4 -16 -2 -37z m1017 -18
c9 -40 -3 -27 -15 15 -5 19 -6 29 -1 24 5 -5 12 -22 16 -39z m56 17 c0 -14 2
-13 9 3 6 15 8 11 7 -17 -1 -21 -3 -38 -4 -38 -3 0 -33 70 -33 77 0 13 20 -11
21 -25z m-998 -124 c1 -14 5 -24 8 -22 3 1 13 -15 23 -36 25 -56 98 -125 165
-156 49 -23 58 -30 53 -48 -4 -21 -4 -21 11 -1 16 20 16 20 17 -4 0 -24 0 -24
15 -5 13 18 14 18 15 1 0 -10 4 -16 9 -13 5 4 12 0 14 -6 4 -10 7 -10 15 0 7
10 12 9 23 -4 13 -16 10 -16 -46 -10 -64 8 -136 35 -197 73 -39 24 -46 37 -28
48 19 12 -10 35 -35 29 -20 -5 -26 2 -48 48 -42 90 -52 161 -36 243 2 11 20
-96 22 -137z m862 -18 c3 -5 1 -10 -4 -10 -6 0 -11 5 -11 10 0 6 2 10 4 10 3
0 8 -4 11 -10z m-876 -160 c24 -35 27 -48 19 -63 -9 -18 -13 -15 -40 28 -16
26 -27 54 -24 62 3 8 2 11 -3 8 -13 -7 -23 28 -15 50 5 13 4 16 -4 11 -16 -9
-15 1 1 18 10 11 14 6 24 -28 7 -23 26 -62 42 -86z m44 -9 c-7 -27 -19 -19
-44 30 -16 32 -18 43 -8 55 10 12 16 8 35 -25 12 -23 20 -49 17 -60z m808 38
c-5 -13 -19 -33 -32 -44 -18 -15 -20 -15 -10 -2 7 9 10 17 5 17 -4 0 2 9 14
20 12 12 22 26 22 32 0 6 2 9 5 6 3 -3 1 -16 -4 -29z m-761 -29 c0 -5 -5 -10
-11 -10 -5 0 -7 5 -4 10 3 6 8 10 11 10 2 0 4 -4 4 -10z m169 -120 c35 -11 83
-20 107 -20 37 0 46 -4 53 -22 7 -20 5 -23 -17 -26 -43 -6 -153 18 -218 48
-52 23 -63 32 -57 47 6 15 5 16 -9 3 -15 -14 -15 -16 4 -31 11 -9 49 -27 83
-40 42 -16 61 -28 60 -39 -1 -10 -1 -11 2 -1 4 10 17 12 56 7 29 -3 64 -6 80
-6 19 0 27 -5 27 -17 0 -16 -2 -16 -11 -3 -9 12 -10 11 -6 -7 5 -21 1 -23 -32
-23 -75 0 -138 -27 -178 -77 -21 -26 -48 -56 -60 -68 -13 -12 -23 -29 -23 -38
0 -9 -4 -19 -10 -22 -5 -3 -10 -15 -10 -25 0 -26 -37 -36 -60 -15 -16 14 -17
27 -13 96 5 67 4 79 -10 79 -21 0 -7 49 28 100 14 20 25 41 25 48 0 16 7 15
38 -6 45 -31 129 -62 179 -67 l48 -5 -59 15 c-32 8 -86 28 -121 45 l-62 30 1
44 c0 25 3 43 7 40 4 -2 5 5 2 17 -5 18 -1 17 43 -11 27 -17 78 -40 113 -50z
m-221 24 c4 2 8 -7 8 -20 1 -13 -2 -24 -8 -24 -5 0 -7 4 -4 9 3 5 0 11 -8 14
-8 3 -17 -1 -20 -9 -3 -9 -1 -12 4 -9 6 3 10 1 10 -4 0 -19 -28 -12 -33 9 -5
21 35 60 41 40 2 -6 7 -8 10 -6z m-121 0 c-3 -3 -12 -4 -19 -1 -8 3 -5 6 6 6
11 1 17 -2 13 -5z m937 -112 c8 -13 -10 -25 -41 -28 -27 -3 -28 5 -7 77 23 78
28 81 35 18 3 -31 9 -61 13 -67z m-944 82 c-10 -11 -9 -14 4 -14 10 0 14 -5
11 -10 -4 -6 -11 -7 -17 -4 -5 4 -4 -4 2 -17 16 -30 25 -39 17 -17 -3 9 1 22
9 28 19 16 20 -8 1 -34 -12 -16 -13 -16 -28 1 -9 10 -19 32 -22 48 -5 26 -2
31 14 32 17 2 18 -1 9 -13z m97 -68 c-1 -19 -5 -32 -9 -29 -5 2 -8 -3 -8 -11
0 -9 -4 -16 -9 -16 -22 0 -41 13 -41 29 0 9 3 12 8 6 6 -10 16 -11 40 -6 4 1
-1 6 -10 12 -10 5 -18 15 -18 21 0 6 6 6 16 -2 13 -11 16 -10 21 8 8 33 13 27
10 -12z m-75 -56 c2 -6 13 -12 25 -13 12 0 19 -5 16 -10 -3 -5 -1 -12 5 -16
20 -12 -4 -32 -44 -38 -29 -4 -43 -1 -53 11 -9 11 -10 16 -2 16 6 0 11 7 11
16 0 11 5 14 16 10 12 -4 14 -1 9 14 -4 11 -2 20 3 20 6 0 12 -5 14 -10z
m1098 -54 c0 -33 -13 -55 -23 -39 -2 5 -2 2 -1 -5 5 -20 -16 -66 -26 -56 -12
13 21 134 37 134 8 0 13 -13 13 -34z m-457 -41 c-3 -9 -8 -14 -10 -11 -3 3 -2
9 2 15 9 16 15 13 8 -4z m4 -67 c-3 -8 -6 -5 -6 6 -1 11 2 17 5 13 3 -3 4 -12
1 -19z m523 -41 c0 -5 -4 -6 -10 -2 -5 3 -16 -7 -24 -22 -21 -38 -20 -22 1 22
12 24 19 31 25 23 4 -7 8 -17 8 -21z m-495 4 c3 -5 1 -12 -5 -16 -5 -3 -10 1
-10 9 0 18 6 21 15 7z m53 -48 c-4 -22 -22 -20 -26 1 -2 10 3 16 13 16 10 0
15 -7 13 -17z"/>
<path d="M480 719 c0 -5 5 -7 10 -4 6 3 10 8 10 11 0 2 -4 4 -10 4 -5 0 -10
-5 -10 -11z"/>
<path d="M255 810 c-3 -5 -1 -10 4 -10 6 0 11 5 11 10 0 6 -2 10 -4 10 -3 0
-8 -4 -11 -10z"/>
<path d="M461 484 c0 -11 3 -14 6 -6 3 7 2 16 -1 19 -3 4 -6 -2 -5 -13z"/>
<path d="M1302 755 c0 -16 2 -22 5 -12 2 9 2 23 0 30 -3 6 -5 -1 -5 -18z"/>
<path d="M1241 694 c0 -11 3 -14 6 -6 3 7 2 16 -1 19 -3 4 -6 -2 -5 -13z"/>
<path d="M1277 703 c-4 -3 -7 -13 -7 -22 1 -13 3 -13 11 2 11 19 8 33 -4 20z"/>
<path d="M1276 575 c-3 -8 -1 -15 4 -15 6 0 10 7 10 15 0 8 -2 15 -4 15 -2 0
-6 -7 -10 -15z"/>
</g>
</svg>
